<svg id="Capa_1" enable-background="new 0 0 512 512" height="512" viewBox="0 0 512 512" width="512" xmlns="http://www.w3.org/2000/svg"><g><g><path d="m148.116 191.295v66.904c0 7.913-8.768 13.173-16.708 5.532-2.924-2.9-7.644-2.901-10.567.007-2.938 2.919-2.952 7.668-.032 10.606 16.733 16.872 42.308 5.496 42.308-16.146v-66.904c0-4.143-3.357-7.5-7.5-7.5s-7.501 3.358-7.501 7.501z"/><path d="m359.093 183.795h-24.315c-4.143 0-7.5 3.357-7.5 7.5v83.71c0 4.128 3.346 7.5 7.5 7.5h.033s22.364-.1 28.529-.1c16.56 0 30.032-13.473 30.032-30.032 0-10.437-5.355-19.644-13.459-25.029 3.712-4.595 5.941-10.435 5.941-16.788 0-14.756-12.004-26.761-26.761-26.761zm0 15c6.485 0 11.762 5.276 11.762 11.762s-5.276 11.762-11.762 11.762c-1.326 0 4.633-.01-16.815.022v-23.546zm4.247 68.61c-3.841 0-13.957.038-21.062.067v-30.101c14.767-.06 7.536-.016 21.062-.031 8.289 0 15.032 6.743 15.032 15.032s-6.743 15.033-15.032 15.033z"/><circle cx="370.137" cy="42.69" r="7.5"/><circle cx="401.137" cy="42.69" r="7.5"/><circle cx="432.137" cy="42.69" r="7.5"/><path d="m478.215.693h-444.43c-18.629 0-33.785 15.157-33.785 33.786v338.312c0 18.629 15.156 33.785 33.785 33.785h16.213c4.143 0 7.5-3.357 7.5-7.5s-3.357-7.5-7.5-7.5h-16.213c-10.358 0-18.785-8.427-18.785-18.785v-285.361h482v285.361c0 10.358-8.427 18.785-18.785 18.785h-179.653c-4.143 0-7.5 3.357-7.5 7.5s3.357 7.5 7.5 7.5h179.652c18.629 0 33.785-15.156 33.785-33.785v-338.312c.001-18.629-15.155-33.786-33.784-33.786zm-463.215 71.737v-37.95c0-10.358 8.427-18.786 18.785-18.786h444.43c10.358 0 18.785 8.428 18.785 18.786v37.95z"/><path d="m414.272 322.05c18.744 0 33.994-15.25 33.994-33.994v-37.389c0-4.143-3.357-7.5-7.5-7.5s-7.5 3.357-7.5 7.5v37.389c0 10.474-8.521 18.994-18.994 18.994h-173.586v-25.329c2.829.51 5.74.784 8.714.784 27.215 0 49.355-22.141 49.355-49.355s-22.141-49.354-49.355-49.354c-7.156 0-13.957 1.536-20.1 4.288-3.913-2.695-8.598-4.338-13.687-4.519-14.654-.566-26.957 11.194-26.957 25.998v66.128c-14.947-6.998-33.017 1.604-36.479 18.551-12.575-6.257-28.356-1.396-34.862 11.913-8.235-5.145-18.574-5.13-26.651-.459-7.193-2.865-11.93-9.775-11.93-17.639v-109.813c0-10.474 8.521-18.994 18.994-18.994h316.545c10.474 0 18.994 8.521 18.994 18.994v37.374c0 4.143 3.357 7.5 7.5 7.5s7.5-3.357 7.5-7.5v-37.374c0-18.744-15.25-33.994-33.994-33.994h-316.545c-18.744 0-33.994 15.25-33.994 33.994v109.812c0 12.177 6.349 23.077 16.404 29.115-1.647 3.484-2.571 7.394-2.571 11.534v60.018c0 25.002 10.109 37.628 21.152 66.57-5.242 3.405-8.723 9.299-8.723 16.001v20.933c0 10.521 8.56 19.08 19.08 19.08h120.886c10.521 0 19.08-8.56 19.08-19.08v-20.933c0-5.585-2.427-10.602-6.265-14.094 6.273-12.84 28.224-29.587 28.224-66.156v-53.999c0-5.551-1.688-10.72-4.572-14.994h147.843zm-130.517-88.901c0 18.943-15.412 34.355-34.355 34.355-3.011 0-5.93-.396-8.714-1.128v-56.37c0-3.376-.618-6.598-1.737-9.563 3.298-1.059 6.805-1.649 10.451-1.649 18.943.001 34.355 15.412 34.355 34.355zm-49.714 259.078c0 2.25-1.83 4.08-4.08 4.08h-120.886c-2.25 0-4.08-1.83-4.08-4.08v-20.933c0-2.249 1.828-4.077 4.076-4.08h.006 120.884c2.25 0 4.08 1.83 4.08 4.08zm21.959-101.184c0 32.352-18.626 41.971-27.453 61.171h-114.844c-12.426-31.981-21.136-42.388-21.136-63.491v-60.018c0-9.944 11.566-15.221 18.663-8.37 2.172 2.096 3.367 4.91 3.367 7.927 0 4.143 3.357 7.5 7.5 7.5s7.5-3.357 7.5-7.5v-10.256c0-9.969 11.577-15.208 18.662-8.371 2.171 2.095 3.367 4.911 3.367 7.928 0 4.143 3.357 7.5 7.5 7.5s7.5-3.357 7.5-7.5v-17.842c0-9.966 11.579-15.209 18.662-8.371 2.171 2.095 3.367 4.91 3.367 7.927 0 4.143 3.357 7.5 7.5 7.5s7.5-3.357 7.5-7.5v-89.714c0-6.222 5.158-11.249 11.424-11.008 5.849.208 10.606 5.346 10.606 11.452v112.305c0 6.352 7.417 9.81 12.284 5.775 2.15-1.779 4.888-2.67 7.685-2.509 5.802.337 10.346 5.373 10.346 11.466z"/></g></g></svg>