<svg id="Capa_1" enable-background="new 0 0 512 512" height="512" viewBox="0 0 512 512" width="512" xmlns="http://www.w3.org/2000/svg"><g><path d="m134.283 117.912v18.046c0 4.352 2.443 8.212 6.376 10.074 1.542.73 3.175 1.089 4.795 1.088 2.515 0 4.996-.864 7.046-2.543l32.488-26.649h21.065c4.142 0 7.5-3.358 7.5-7.5s-3.358-7.5-7.5-7.5h-21.649c-3.08 0-6.088 1.075-8.476 3.031l-26.645 21.856v-11.517c0-7.373-5.998-13.37-13.37-13.37h-.76c-4.428 0-8.03-3.603-8.03-8.031v-67.331c0-4.422 3.603-8.021 8.03-8.021h117.252c4.428 0 8.03 3.598 8.03 8.021v26.649h-5.495c-12.696 0-23.024 10.329-23.024 23.024v70.001c0 12.696 10.329 23.024 23.024 23.024h67.42l32.483 26.648c2.049 1.681 4.53 2.546 7.047 2.546 1.618 0 3.251-.358 4.792-1.087 3.936-1.862 6.381-5.724 6.381-10.079v-18.044c12.296-.457 22.158-10.603 22.158-23.008v-70c0-12.695-10.329-23.024-23.024-23.024h-96.763v-26.65c0-12.693-10.332-23.021-23.03-23.021h-117.252c-12.699 0-23.03 10.327-23.03 23.021v67.331c0 12.408 9.863 22.555 22.161 23.015zm245.939-40.672v70.001c0 4.425-3.6 8.024-8.024 8.024h-.759c-7.375 0-13.375 6-13.375 13.375v11.514l-26.641-21.855c-2.385-1.957-5.397-3.034-8.482-3.034h-68.001c-4.425 0-8.024-3.6-8.024-8.024v-70.001c0-4.424 3.6-8.024 8.024-8.024h12.975c.007 0 .013.001.019.001s.013-.001.019-.001h104.243c4.427 0 8.026 3.599 8.026 8.024z"/><path d="m239.719 43.366c0-4.142-3.358-7.5-7.5-7.5h-82.689c-4.142 0-7.5 3.358-7.5 7.5s3.358 7.5 7.5 7.5h82.689c4.142 0 7.5-3.357 7.5-7.5z"/><path d="m149.529 68.327c-4.142 0-7.5 3.358-7.5 7.5s3.358 7.5 7.5 7.5h54.012c4.142 0 7.5-3.358 7.5-7.5s-3.358-7.5-7.5-7.5z"/><path d="m263.263 95.372c0 4.142 3.358 7.5 7.5 7.5h82.69c4.142 0 7.5-3.358 7.5-7.5s-3.358-7.5-7.5-7.5h-82.69c-4.142 0-7.5 3.358-7.5 7.5z"/><path d="m324.774 120.333h-54.012c-4.142 0-7.5 3.358-7.5 7.5s3.358 7.5 7.5 7.5h54.012c4.142 0 7.5-3.358 7.5-7.5s-3.357-7.5-7.5-7.5z"/><path d="m504.5 356.703h-14.051c4.831-6.352 7.706-14.269 7.706-22.847l.004-55.343c0-4.142-3.358-7.5-7.5-7.5s-7.5 3.358-7.5 7.5v26.609h-62.662l-.727-14.328c.347-.262.678-.548.978-.87l34.737-37.297c2.823-3.031 2.654-7.777-.376-10.6-3.032-2.823-7.777-2.655-10.6.376l-32.513 34.909h-73.446c2.719-8.418 9.919-14.876 19.079-16.4l45.588-7.582c2.217-.369 4.151-1.712 5.271-3.66l7.33-12.75c.006-.011.014-.021.021-.032l20.041-34.861c.098-.169.188-.343.272-.52 3.401-7.16 10.535-11.608 18.616-11.608 5.8 0 11.277 2.287 15.427 6.443 8.359 8.36 12.963 19.475 12.963 31.298v19.874c0 4.142 3.358 7.5 7.5 7.5s7.5-3.358 7.5-7.5v-19.874c0-15.829-6.164-30.711-17.353-41.9-1.155-1.157-2.377-2.219-3.648-3.2 7.907-6.258 12.994-15.929 12.994-26.772v-13.684c0-2.479-.272-4.894-.776-7.224 5.679-4.175 9.273-10.897 9.273-18.202 0-12.451-10.125-22.581-22.57-22.581-9.369 0-17.41 5.703-20.816 13.889-12.636.275-23.604 7.441-29.275 17.89-3.122-.26-6.199 1.463-7.509 4.498-1.575 3.649-.019 7.852 3.468 9.637-.042.693-.07 1.389-.07 2.093v13.684c0 10.323 4.612 19.584 11.877 25.849-4.603 3.333-8.401 7.797-11.005 13.151l-25.496 44.347-42.086 6.999c-16.475 2.74-29.025 15.34-32.074 31.197h-134.188c-3.049-15.856-15.599-28.456-32.073-31.197l-42.086-6.999-25.484-44.325c-3.237-6.667-8.336-11.942-14.525-15.386 5.73-6.109 9.25-14.314 9.25-23.331v-13.684c0-18.824-15.314-34.138-34.137-34.138-18.824 0-34.138 15.314-34.138 34.138v13.684c0 4.604.903 9.076 2.686 13.291 2.822 6.672 7.595 12.081 13.48 15.724-.227.216-.458.426-.68.649-11.193 11.192-17.357 26.074-17.357 41.903l.004 106.215c0 8.578 2.875 16.495 7.706 22.847h-14.05c-4.142 0-7.5 3.358-7.5 7.5v16.07c0 10.609 8.636 19.24 19.25 19.24h9.596l-21.153 98.87c-.867 4.051 1.714 8.037 5.765 8.903.529.113 1.057.167 1.577.167 3.461 0 6.573-2.411 7.327-5.932l21.825-102.009h48.496l21.825 102.009c.753 3.521 3.865 5.932 7.327 5.932.52 0 1.048-.054 1.577-.167 4.05-.867 6.631-4.853 5.765-8.903l-21.153-98.87h10.192c1.875 0 3.702-.285 5.443-.802l13.078 97.031c.9 6.676 6.658 11.71 13.395 11.71h15.948c7.453 0 13.516-6.063 13.516-13.516v-145.232c0-10.929-4.053-20.923-10.723-28.581h29.339c5.09 11.548 13.671 21.323 24.584 27.885 4.995 3.003 7.977 8.128 7.977 13.707v130.739h-10.577c-4.142 0-7.5 3.358-7.5 7.5s3.358 7.5 7.5 7.5h68.371c4.142 0 7.5-3.358 7.5-7.5s-3.358-7.5-7.5-7.5h-11.877v-129.911c0-5.655 3.18-11.002 8.299-13.953 11.391-6.567 20.316-16.551 25.562-28.467h32.583c-6.67 7.658-10.723 17.652-10.723 28.581v145.234c0 7.453 6.063 13.516 13.516 13.516h15.948c6.736 0 12.495-5.034 13.395-11.71l13.078-97.031c1.741.516 3.569.802 5.444.802h10.191l-21.153 98.87c-.867 4.051 1.714 8.037 5.765 8.903.529.113 1.057.167 1.577.167 3.461 0 6.573-2.411 7.327-5.932l21.825-102.009h48.497l21.825 102.009c.753 3.521 3.865 5.932 7.327 5.932.52 0 1.048-.054 1.577-.167 4.05-.867 6.631-4.853 5.765-8.903l-21.153-98.87h9.596c10.614 0 19.25-8.631 19.25-19.24v-16.07c-.008-4.143-3.366-7.501-7.508-7.501zm-28.42-247.626c4.174 0 7.57 3.4 7.57 7.581 0 1.424-.425 2.77-1.137 3.933-3.175-3.907-7.192-7.103-11.776-9.303 1.371-1.366 3.258-2.211 5.343-2.211zm-20.064 13.87c10.552 0 19.137 8.585 19.137 19.138v13.684c0 10.553-8.585 19.138-19.138 19.138-10.552 0-19.137-8.585-19.137-19.138v-9.307l8.74 3.771.648 2.179c.969 3.257 3.953 5.364 7.186 5.364.708 0 1.428-.101 2.141-.313 3.97-1.181 6.231-5.357 5.051-9.327l-.992-3.334c-1.052-3.535-3.597-6.4-6.985-7.863l-12.587-5.431c3.434-5.155 9.293-8.561 15.936-8.561zm-425.305 19.442c0-10.553 8.585-19.138 19.138-19.138 5.634 0 10.692 2.462 14.197 6.35l-17.003 7.336c-3.387 1.462-5.932 4.328-6.983 7.862l-.992 3.334c-1.181 3.97 1.08 8.146 5.049 9.328.714.212 1.434.313 2.142.313 3.232 0 6.217-2.106 7.186-5.363l.648-2.18 14.893-6.426v12.266c0 10.553-8.585 19.138-19.137 19.138-7.71 0-14.633-4.589-17.637-11.69-.996-2.355-1.501-4.861-1.501-7.448v-13.682zm11.097 53.949c4.146-4.152 9.623-6.439 15.423-6.439 8.082 0 15.215 4.448 18.616 11.608.081.171.17.34.264.504.003.005.005.01.007.015l1.557 2.707 18.485 32.155c.005.008.01.015.015.023l7.335 12.759c1.12 1.948 3.055 3.292 5.271 3.66l45.588 7.582c9.16 1.523 16.359 7.982 19.078 16.4h-73.446l-32.513-34.909c-2.824-3.031-7.568-3.199-10.6-.376-3.031 2.823-3.2 7.569-.376 10.6l32.726 35.137v6.008c0 3.822.825 7.454 2.295 10.735l-.031.616h-62.662v-77.483c0-11.822 4.604-22.938 12.968-31.302zm76.404 188.175h-98.962c-2.343 0-4.25-1.902-4.25-4.24v-8.57h105.016l1.512 11.215c-.794.985-2.004 1.595-3.316 1.595zm46.38-35.81v143.75h-13.167l-17.424-129.277c-.501-3.721-3.678-6.498-7.433-6.498h-74.902c-12.584 0-22.822-10.238-22.822-22.822v-13.734h107.167c15.76 0 28.581 12.821 28.581 28.581zm112.901-13.109c-9.75 5.621-15.807 15.947-15.807 26.948v129.911h-15.917v-130.739c0-10.891-5.7-20.821-15.247-26.562-6.267-3.769-11.508-8.942-15.356-15.031h5.112c4.142 0 7.5-3.358 7.5-7.5s-3.358-7.5-7.5-7.5h-104.688c-6.259 0-11.352-5.092-11.352-11.351v-1.459h300.278v1.459c0 6.259-5.092 11.351-11.352 11.351h-143.563c-4.142 0-7.5 3.358-7.5 7.5s3.358 7.5 7.5 7.5h43.996c-3.997 6.336-9.499 11.665-16.104 15.473zm83.08 156.859h-13.166v-143.75c0-15.76 12.821-28.581 28.581-28.581h107.167v13.734c0 12.584-10.238 22.822-22.822 22.822h-74.903c-3.755 0-6.931 2.777-7.433 6.498zm136.427-112.18c0 2.338-1.907 4.24-4.25 4.24h-98.962c-1.312 0-2.522-.61-3.315-1.596l1.512-11.215h105.015z"/></g></svg>